<?xml version="1.0" encoding="UTF-8"?>
<svg xmlns="http://www.w3.org/2000/svg" class="api-map theme-midnight" role="img" aria-labelledby="map-title map-description" viewBox="0 0 1360 930" data-width="1360" data-height="930"><title id="map-title">Live commerce API</title><desc id="map-description">API subway map with 10 endpoint stations and 12 dependency lines.</desc><style>
.api-map{--bg:#071521;--surface:#0d2130;--text:#f6f1e7;--muted:#8ea5b5;--faint:#294353;--trunk:#426070;--station:#f6f1e7;--badge:#183344;background:var(--bg);font-family:Inter,ui-sans-serif,system-ui,-apple-system,BlinkMacSystemFont,"Segoe UI",sans-serif}.api-map.theme-paper{--bg:#f7f4ec;--surface:#fffdf7;--text:#17242c;--muted:#68777f;--faint:#d9ddd9;--trunk:#aeb9bc;--station:#17242c;--badge:#e9eeec}.api-map.theme-auto{--bg:#f7f4ec;--surface:#fffdf7;--text:#17242c;--muted:#68777f;--faint:#d9ddd9;--trunk:#aeb9bc;--station:#17242c;--badge:#e9eeec}@media(prefers-color-scheme:dark){.api-map.theme-auto{--bg:#071521;--surface:#0d2130;--text:#f6f1e7;--muted:#8ea5b5;--faint:#294353;--trunk:#426070;--station:#f6f1e7;--badge:#183344}}.map-background{fill:var(--bg)}text{fill:var(--text)}.brand{font-size:17px;font-weight:800;letter-spacing:.08em;fill:#2bd9fe}.map-name{font-size:28px;font-weight:680;letter-spacing:-.025em}.map-meta{font-size:11px;font-weight:700;letter-spacing:.12em;fill:var(--muted)}.district-label{font-size:12px;font-weight:800;letter-spacing:.16em}.district-count{font-size:10px;font-family:ui-monospace,SFMono-Regular,Menlo,monospace;text-anchor:end;fill:var(--muted)}.district-trunk{stroke:var(--trunk);stroke-width:3;fill:none;stroke-linecap:round}.empty-district{font-size:13px;fill:var(--muted)}.dependency-rail{stroke:var(--line-color);stroke-width:6;fill:none;stroke-linecap:round;opacity:.92}.dependency-line{stroke:var(--line-color);stroke-width:4;fill:none;stroke-linecap:round;stroke-linejoin:round;opacity:.9}.dependency-line.inferred{stroke-dasharray:8 7;opacity:.7}.station{cursor:pointer}.station-hit-area{fill:none;pointer-events:all}.simulation-status-ring{display:none;fill:none;pointer-events:none}.station-dot{fill:var(--station);stroke:var(--bg);stroke-width:3}.interchange-ring{fill:var(--bg);stroke:var(--station);stroke-width:3}.method-badge{fill:var(--badge)}.method-get{fill:#123e4a}.method-post{fill:#193f35}.method-put{fill:#453b1d}.method-patch{fill:#372d57}.method-delete{fill:#4e282c}.method-options,.method-head,.method-any{fill:#263b49}.theme-paper .method-get,.theme-auto .method-get{fill:#d9f5fa}.theme-paper .method-post,.theme-auto .method-post{fill:#dbf4e8}.theme-paper .method-put,.theme-auto .method-put{fill:#f9edc9}.theme-paper .method-patch,.theme-auto .method-patch{fill:#eae2ff}.theme-paper .method-delete,.theme-auto .method-delete{fill:#ffe2df}@media(prefers-color-scheme:dark){.theme-auto .method-get{fill:#123e4a}.theme-auto .method-post{fill:#193f35}.theme-auto .method-put{fill:#453b1d}.theme-auto .method-patch{fill:#372d57}.theme-auto .method-delete{fill:#4e282c}}.method-text{fill:var(--text);font-size:10px;font-weight:800;text-anchor:middle;letter-spacing:.04em}.endpoint-label{font-family:ui-monospace,SFMono-Regular,Menlo,monospace;font-size:12px;font-weight:550}.contract-indicator{display:none;fill:#f7bd4a;font-family:ui-monospace,SFMono-Regular,Menlo,monospace;font-size:8px;font-weight:800;letter-spacing:.08em}.station.selected .contract-indicator{display:block}.legend-item path{stroke:var(--line-color);stroke-width:5;stroke-linecap:round}.legend-item circle{fill:var(--line-color)}.legend-item text{font-size:11px;font-weight:650}.legend-item .legend-kind{font-size:8px;text-transform:uppercase;letter-spacing:.1em;fill:var(--muted)}.hidden-lines{font-size:11px;fill:var(--muted)}
</style><rect class="map-background" width="100%" height="100%" rx="18"/><g id="map-scene"><g class="map-heading"><text class="brand" x="72" y="60">api-subway</text><text class="map-name" x="72" y="99">Live commerce API</text><text class="map-meta" x="1288" y="62" text-anchor="end">10 STATIONS · 12 LINES</text></g><g class="district" data-district="BILLING"><text class="district-label" x="74.0" y="170.0">BILLING</text><text class="district-count" x="430.0" y="170.0">02</text><path class="district-trunk" d="M 430.0 206.0 L 430.0 250.0"/></g><g class="district" data-district="EVENTS"><text class="district-label" x="930.0" y="170.0">EVENTS</text><text class="district-count" x="1286.0" y="170.0">01</text><path class="district-trunk" d="M 930.0 206.0 L 930.0 206.0"/></g><g class="district" data-district="HEALTH"><text class="district-label" x="74.0" y="364.0">HEALTH</text><text class="district-count" x="430.0" y="364.0">01</text><path class="district-trunk" d="M 430.0 400.0 L 430.0 400.0"/></g><g class="district" data-district="ORDERS"><text class="district-label" x="930.0" y="320.0">ORDERS</text><text class="district-count" x="1286.0" y="320.0">03</text><path class="district-trunk" d="M 930.0 356.0 L 930.0 444.0"/></g><g class="district" data-district="USERS"><text class="district-label" x="74.0" y="514.0">USERS</text><text class="district-count" x="430.0" y="514.0">03</text><path class="district-trunk" d="M 430.0 550.0 L 430.0 638.0"/></g><g class="dependency-lines"><path class="dependency-rail" data-dependency-id="dep-8224cb7ecac317c0" data-kind="middleware" style="--line-color:#2bd9fe" d="M 515.0 206.0 L 515.0 638.0"/><path class="dependency-line exact" data-dependency-id="dep-8224cb7ecac317c0" data-kind="middleware" data-confidence="exact" style="--line-color:#2bd9fe" d="M 430.0 206.0 L 444.0 193.9 L 505.0 193.9 L 515.0 206.0"/><path class="dependency-line exact" data-dependency-id="dep-8224cb7ecac317c0" data-kind="middleware" data-confidence="exact" style="--line-color:#2bd9fe" d="M 930.0 206.0 L 916.0 193.9 L 525.0 193.9 L 515.0 206.0"/><path class="dependency-line exact" data-dependency-id="dep-8224cb7ecac317c0" data-kind="middleware" data-confidence="exact" style="--line-color:#2bd9fe" d="M 430.0 250.0 L 444.0 237.9 L 505.0 237.9 L 515.0 250.0"/><path class="dependency-line exact" data-dependency-id="dep-8224cb7ecac317c0" data-kind="middleware" data-confidence="exact" style="--line-color:#2bd9fe" d="M 930.0 356.0 L 916.0 343.9 L 525.0 343.9 L 515.0 356.0"/><path class="dependency-line exact" data-dependency-id="dep-8224cb7ecac317c0" data-kind="middleware" data-confidence="exact" style="--line-color:#2bd9fe" d="M 430.0 400.0 L 444.0 387.9 L 505.0 387.9 L 515.0 400.0"/><path class="dependency-line exact" data-dependency-id="dep-8224cb7ecac317c0" data-kind="middleware" data-confidence="exact" style="--line-color:#2bd9fe" d="M 930.0 400.0 L 916.0 387.9 L 525.0 387.9 L 515.0 400.0"/><path class="dependency-line exact" data-dependency-id="dep-8224cb7ecac317c0" data-kind="middleware" data-confidence="exact" style="--line-color:#2bd9fe" d="M 930.0 444.0 L 916.0 431.9 L 525.0 431.9 L 515.0 444.0"/><path class="dependency-line exact" data-dependency-id="dep-8224cb7ecac317c0" data-kind="middleware" data-confidence="exact" style="--line-color:#2bd9fe" d="M 430.0 550.0 L 444.0 537.9 L 505.0 537.9 L 515.0 550.0"/><path class="dependency-line exact" data-dependency-id="dep-8224cb7ecac317c0" data-kind="middleware" data-confidence="exact" style="--line-color:#2bd9fe" d="M 430.0 594.0 L 444.0 581.9 L 505.0 581.9 L 515.0 594.0"/><path class="dependency-line exact" data-dependency-id="dep-8224cb7ecac317c0" data-kind="middleware" data-confidence="exact" style="--line-color:#2bd9fe" d="M 430.0 638.0 L 444.0 625.9 L 505.0 625.9 L 515.0 638.0"/><path class="dependency-rail" data-dependency-id="dep-77a1adba6fb5c92b" data-kind="middleware" style="--line-color:#ff6f61" d="M 545.0 206.0 L 545.0 638.0"/><path class="dependency-line exact" data-dependency-id="dep-77a1adba6fb5c92b" data-kind="middleware" data-confidence="exact" style="--line-color:#ff6f61" d="M 430.0 206.0 L 444.0 196.1 L 535.0 196.1 L 545.0 206.0"/><path class="dependency-line exact" data-dependency-id="dep-77a1adba6fb5c92b" data-kind="middleware" data-confidence="exact" style="--line-color:#ff6f61" d="M 930.0 206.0 L 916.0 196.1 L 555.0 196.1 L 545.0 206.0"/><path class="dependency-line exact" data-dependency-id="dep-77a1adba6fb5c92b" data-kind="middleware" data-confidence="exact" style="--line-color:#ff6f61" d="M 430.0 250.0 L 444.0 240.1 L 535.0 240.1 L 545.0 250.0"/><path class="dependency-line exact" data-dependency-id="dep-77a1adba6fb5c92b" data-kind="middleware" data-confidence="exact" style="--line-color:#ff6f61" d="M 930.0 356.0 L 916.0 346.1 L 555.0 346.1 L 545.0 356.0"/><path class="dependency-line exact" data-dependency-id="dep-77a1adba6fb5c92b" data-kind="middleware" data-confidence="exact" style="--line-color:#ff6f61" d="M 430.0 400.0 L 444.0 390.1 L 535.0 390.1 L 545.0 400.0"/><path class="dependency-line exact" data-dependency-id="dep-77a1adba6fb5c92b" data-kind="middleware" data-confidence="exact" style="--line-color:#ff6f61" d="M 930.0 400.0 L 916.0 390.1 L 555.0 390.1 L 545.0 400.0"/><path class="dependency-line exact" data-dependency-id="dep-77a1adba6fb5c92b" data-kind="middleware" data-confidence="exact" style="--line-color:#ff6f61" d="M 930.0 444.0 L 916.0 434.1 L 555.0 434.1 L 545.0 444.0"/><path class="dependency-line exact" data-dependency-id="dep-77a1adba6fb5c92b" data-kind="middleware" data-confidence="exact" style="--line-color:#ff6f61" d="M 430.0 550.0 L 444.0 540.1 L 535.0 540.1 L 545.0 550.0"/><path class="dependency-line exact" data-dependency-id="dep-77a1adba6fb5c92b" data-kind="middleware" data-confidence="exact" style="--line-color:#ff6f61" d="M 430.0 594.0 L 444.0 584.1 L 535.0 584.1 L 545.0 594.0"/><path class="dependency-line exact" data-dependency-id="dep-77a1adba6fb5c92b" data-kind="middleware" data-confidence="exact" style="--line-color:#ff6f61" d="M 430.0 638.0 L 444.0 628.1 L 535.0 628.1 L 545.0 638.0"/><path class="dependency-rail" data-dependency-id="dep-b8d9e403b65eea98" data-kind="middleware" style="--line-color:#f7bd4a" d="M 575.0 206.0 L 575.0 638.0"/><path class="dependency-line exact" data-dependency-id="dep-b8d9e403b65eea98" data-kind="middleware" data-confidence="exact" style="--line-color:#f7bd4a" d="M 430.0 206.0 L 444.0 198.3 L 565.0 198.3 L 575.0 206.0"/><path class="dependency-line exact" data-dependency-id="dep-b8d9e403b65eea98" data-kind="middleware" data-confidence="exact" style="--line-color:#f7bd4a" d="M 430.0 250.0 L 444.0 242.3 L 565.0 242.3 L 575.0 250.0"/><path class="dependency-line exact" data-dependency-id="dep-b8d9e403b65eea98" data-kind="middleware" data-confidence="exact" style="--line-color:#f7bd4a" d="M 930.0 356.0 L 916.0 348.3 L 585.0 348.3 L 575.0 356.0"/><path class="dependency-line exact" data-dependency-id="dep-b8d9e403b65eea98" data-kind="middleware" data-confidence="exact" style="--line-color:#f7bd4a" d="M 930.0 400.0 L 916.0 392.3 L 585.0 392.3 L 575.0 400.0"/><path class="dependency-line exact" data-dependency-id="dep-b8d9e403b65eea98" data-kind="middleware" data-confidence="exact" style="--line-color:#f7bd4a" d="M 930.0 444.0 L 916.0 436.3 L 585.0 436.3 L 575.0 444.0"/><path class="dependency-line exact" data-dependency-id="dep-b8d9e403b65eea98" data-kind="middleware" data-confidence="exact" style="--line-color:#f7bd4a" d="M 430.0 550.0 L 444.0 542.3 L 565.0 542.3 L 575.0 550.0"/><path class="dependency-line exact" data-dependency-id="dep-b8d9e403b65eea98" data-kind="middleware" data-confidence="exact" style="--line-color:#f7bd4a" d="M 430.0 594.0 L 444.0 586.3 L 565.0 586.3 L 575.0 594.0"/><path class="dependency-line exact" data-dependency-id="dep-b8d9e403b65eea98" data-kind="middleware" data-confidence="exact" style="--line-color:#f7bd4a" d="M 430.0 638.0 L 444.0 630.3 L 565.0 630.3 L 575.0 638.0"/><path class="dependency-rail" data-dependency-id="dep-19553b4c5896dee5" data-kind="datastore" style="--line-color:#a88bff" d="M 605.0 356.0 L 605.0 444.0"/><path class="dependency-line inferred" data-dependency-id="dep-19553b4c5896dee5" data-kind="datastore" data-confidence="inferred" style="--line-color:#a88bff" d="M 930.0 356.0 L 916.0 350.5 L 615.0 350.5 L 605.0 356.0"/><path class="dependency-line inferred" data-dependency-id="dep-19553b4c5896dee5" data-kind="datastore" data-confidence="inferred" style="--line-color:#a88bff" d="M 930.0 400.0 L 916.0 394.5 L 615.0 394.5 L 605.0 400.0"/><path class="dependency-line inferred" data-dependency-id="dep-19553b4c5896dee5" data-kind="datastore" data-confidence="inferred" style="--line-color:#a88bff" d="M 930.0 444.0 L 916.0 438.5 L 615.0 438.5 L 605.0 444.0"/><path class="dependency-rail" data-dependency-id="dep-b648ce9ab50da022" data-kind="datastore" style="--line-color:#5ce1b6" d="M 635.0 356.0 L 635.0 444.0"/><path class="dependency-line exact" data-dependency-id="dep-b648ce9ab50da022" data-kind="datastore" data-confidence="exact" style="--line-color:#5ce1b6" d="M 930.0 356.0 L 916.0 352.7 L 645.0 352.7 L 635.0 356.0"/><path class="dependency-line exact" data-dependency-id="dep-b648ce9ab50da022" data-kind="datastore" data-confidence="exact" style="--line-color:#5ce1b6" d="M 930.0 400.0 L 916.0 396.7 L 645.0 396.7 L 635.0 400.0"/><path class="dependency-line exact" data-dependency-id="dep-b648ce9ab50da022" data-kind="datastore" data-confidence="exact" style="--line-color:#5ce1b6" d="M 930.0 444.0 L 916.0 440.7 L 645.0 440.7 L 635.0 444.0"/><path class="dependency-rail" data-dependency-id="dep-30077558c4dc9970" data-kind="datastore" style="--line-color:#ff8ccd" d="M 665.0 550.0 L 665.0 638.0"/><path class="dependency-line exact" data-dependency-id="dep-30077558c4dc9970" data-kind="datastore" data-confidence="exact" style="--line-color:#ff8ccd" d="M 430.0 550.0 L 444.0 548.9 L 655.0 548.9 L 665.0 550.0"/><path class="dependency-line exact" data-dependency-id="dep-30077558c4dc9970" data-kind="datastore" data-confidence="exact" style="--line-color:#ff8ccd" d="M 430.0 594.0 L 444.0 592.9 L 655.0 592.9 L 665.0 594.0"/><path class="dependency-line exact" data-dependency-id="dep-30077558c4dc9970" data-kind="datastore" data-confidence="exact" style="--line-color:#ff8ccd" d="M 430.0 638.0 L 444.0 636.9 L 655.0 636.9 L 665.0 638.0"/><path class="dependency-rail" data-dependency-id="dep-ff25b093dde3a184" data-kind="datastore" style="--line-color:#72a7ff" d="M 695.0 550.0 L 695.0 638.0"/><path class="dependency-line inferred" data-dependency-id="dep-ff25b093dde3a184" data-kind="datastore" data-confidence="inferred" style="--line-color:#72a7ff" d="M 430.0 550.0 L 444.0 551.1 L 685.0 551.1 L 695.0 550.0"/><path class="dependency-line inferred" data-dependency-id="dep-ff25b093dde3a184" data-kind="datastore" data-confidence="inferred" style="--line-color:#72a7ff" d="M 430.0 594.0 L 444.0 595.1 L 685.0 595.1 L 695.0 594.0"/><path class="dependency-line inferred" data-dependency-id="dep-ff25b093dde3a184" data-kind="datastore" data-confidence="inferred" style="--line-color:#72a7ff" d="M 430.0 638.0 L 444.0 639.1 L 685.0 639.1 L 695.0 638.0"/><path class="dependency-rail" data-dependency-id="dep-79f71da190a68b05" data-kind="service" style="--line-color:#f58d44" d="M 725.0 206.0 L 725.0 400.0"/><path class="dependency-line inferred" data-dependency-id="dep-79f71da190a68b05" data-kind="service" data-confidence="inferred" style="--line-color:#f58d44" d="M 430.0 206.0 L 444.0 209.3 L 715.0 209.3 L 725.0 206.0"/><path class="dependency-line inferred" data-dependency-id="dep-79f71da190a68b05" data-kind="service" data-confidence="inferred" style="--line-color:#f58d44" d="M 430.0 250.0 L 444.0 253.3 L 715.0 253.3 L 725.0 250.0"/><path class="dependency-line inferred" data-dependency-id="dep-79f71da190a68b05" data-kind="service" data-confidence="inferred" style="--line-color:#f58d44" d="M 930.0 400.0 L 916.0 403.3 L 735.0 403.3 L 725.0 400.0"/><path class="dependency-rail" data-dependency-id="dep-530c819560d41f73" data-kind="service" style="--line-color:#7bdc65" d="M 755.0 356.0 L 755.0 444.0"/><path class="dependency-line inferred" data-dependency-id="dep-530c819560d41f73" data-kind="service" data-confidence="inferred" style="--line-color:#7bdc65" d="M 930.0 356.0 L 916.0 361.5 L 765.0 361.5 L 755.0 356.0"/><path class="dependency-line inferred" data-dependency-id="dep-530c819560d41f73" data-kind="service" data-confidence="inferred" style="--line-color:#7bdc65" d="M 930.0 400.0 L 916.0 405.5 L 765.0 405.5 L 755.0 400.0"/><path class="dependency-line inferred" data-dependency-id="dep-530c819560d41f73" data-kind="service" data-confidence="inferred" style="--line-color:#7bdc65" d="M 930.0 444.0 L 916.0 449.5 L 765.0 449.5 L 755.0 444.0"/><path class="dependency-rail" data-dependency-id="dep-8472a1c3efe535ca" data-kind="service" style="--line-color:#dd79ff" d="M 785.0 550.0 L 785.0 638.0"/><path class="dependency-line inferred" data-dependency-id="dep-8472a1c3efe535ca" data-kind="service" data-confidence="inferred" style="--line-color:#dd79ff" d="M 430.0 550.0 L 444.0 557.7 L 775.0 557.7 L 785.0 550.0"/><path class="dependency-line inferred" data-dependency-id="dep-8472a1c3efe535ca" data-kind="service" data-confidence="inferred" style="--line-color:#dd79ff" d="M 430.0 594.0 L 444.0 601.7 L 775.0 601.7 L 785.0 594.0"/><path class="dependency-line inferred" data-dependency-id="dep-8472a1c3efe535ca" data-kind="service" data-confidence="inferred" style="--line-color:#dd79ff" d="M 430.0 638.0 L 444.0 645.7 L 775.0 645.7 L 785.0 638.0"/><path class="dependency-rail" data-dependency-id="dep-f464ac88d2f4fc49" data-kind="external" style="--line-color:#38c7ae" d="M 815.0 206.0 L 815.0 400.0"/><path class="dependency-line exact" data-dependency-id="dep-f464ac88d2f4fc49" data-kind="external" data-confidence="exact" style="--line-color:#38c7ae" d="M 430.0 206.0 L 444.0 215.9 L 805.0 215.9 L 815.0 206.0"/><path class="dependency-line exact" data-dependency-id="dep-f464ac88d2f4fc49" data-kind="external" data-confidence="exact" style="--line-color:#38c7ae" d="M 430.0 250.0 L 444.0 259.9 L 805.0 259.9 L 815.0 250.0"/><path class="dependency-line exact" data-dependency-id="dep-f464ac88d2f4fc49" data-kind="external" data-confidence="exact" style="--line-color:#38c7ae" d="M 930.0 400.0 L 916.0 409.9 L 825.0 409.9 L 815.0 400.0"/><path class="dependency-rail" data-dependency-id="dep-38b12984ca61ba14" data-kind="external" style="--line-color:#e5d352" d="M 845.0 400.0 L 845.0 594.0"/><path class="dependency-line inferred" data-dependency-id="dep-38b12984ca61ba14" data-kind="external" data-confidence="inferred" style="--line-color:#e5d352" d="M 930.0 400.0 L 916.0 412.1 L 855.0 412.1 L 845.0 400.0"/><path class="dependency-line inferred" data-dependency-id="dep-38b12984ca61ba14" data-kind="external" data-confidence="inferred" style="--line-color:#e5d352" d="M 430.0 594.0 L 444.0 606.1 L 835.0 606.1 L 845.0 594.0"/></g><g class="stations"><g class="station" tabindex="-1" role="button" aria-label="GET /billing/invoices, 0 inputs and 1 responses" data-endpoint-id="ep-102a6fc5e241162e" data-method="GET" data-path="/billing/invoices" data-dependencies="dep-77a1adba6fb5c92b,dep-79f71da190a68b05,dep-8224cb7ecac317c0,dep-b8d9e403b65eea98,dep-f464ac88d2f4fc49" data-input-count="0" data-response-count="1" transform="translate(430.0 206.0)"><title>GET /billing/invoices — express</title><circle class="interchange-ring" r="12"/><circle class="station-dot" r="6"/><rect class="method-badge method-get" x="-350" y="-13" width="47" height="26" rx="6"/><text class="method-text" x="-326.5" y="4">GET</text><text class="endpoint-label" x="-293" y="5">/billing/invoices</text></g><g class="station" tabindex="-1" role="button" aria-label="POST /billing/refunds, 3 inputs and 1 responses" data-endpoint-id="ep-5b159fe7971dff79" data-method="POST" data-path="/billing/refunds" data-dependencies="dep-77a1adba6fb5c92b,dep-79f71da190a68b05,dep-8224cb7ecac317c0,dep-b8d9e403b65eea98,dep-f464ac88d2f4fc49" data-input-count="3" data-response-count="1" transform="translate(430.0 250.0)"><title>POST /billing/refunds — express</title><circle class="interchange-ring" r="12"/><circle class="station-dot" r="6"/><rect class="method-badge method-post" x="-350" y="-13" width="54" height="26" rx="6"/><text class="method-text" x="-323" y="4">POST</text><text class="endpoint-label" x="-286" y="5">/billing/refunds</text></g><g class="station" tabindex="-1" role="button" aria-label="GET /events, 0 inputs and 1 responses" data-endpoint-id="ep-9d34906a5398a38b" data-method="GET" data-path="/events" data-dependencies="dep-0deabab87642d75f,dep-7000052920b3703f,dep-77a1adba6fb5c92b,dep-8224cb7ecac317c0,dep-a3bad5154021fee5" data-input-count="0" data-response-count="1" transform="translate(930.0 206.0)"><title>GET /events — express</title><circle class="interchange-ring" r="12"/><circle class="station-dot" r="6"/><rect class="method-badge method-get" x="20" y="-13" width="47" height="26" rx="6"/><text class="method-text" x="43.5" y="4">GET</text><text class="endpoint-label" x="77" y="5">/events</text></g><g class="station" tabindex="-1" role="button" aria-label="GET /health, 0 inputs and 1 responses" data-endpoint-id="ep-acf963f451ba8bcc" data-method="GET" data-path="/health" data-dependencies="dep-77a1adba6fb5c92b,dep-8224cb7ecac317c0" data-input-count="0" data-response-count="1" transform="translate(430.0 400.0)"><title>GET /health — express</title><circle class="interchange-ring" r="12"/><circle class="station-dot" r="6"/><rect class="method-badge method-get" x="-350" y="-13" width="47" height="26" rx="6"/><text class="method-text" x="-326.5" y="4">GET</text><text class="endpoint-label" x="-293" y="5">/health</text></g><g class="station" tabindex="-1" role="button" aria-label="GET /orders, 0 inputs and 1 responses" data-endpoint-id="ep-eb33c83b205d2d8f" data-method="GET" data-path="/orders" data-dependencies="dep-19553b4c5896dee5,dep-530c819560d41f73,dep-77a1adba6fb5c92b,dep-8224cb7ecac317c0,dep-b648ce9ab50da022,dep-b8d9e403b65eea98" data-input-count="0" data-response-count="1" transform="translate(930.0 356.0)"><title>GET /orders — express</title><circle class="interchange-ring" r="12"/><circle class="station-dot" r="6"/><rect class="method-badge method-get" x="20" y="-13" width="47" height="26" rx="6"/><text class="method-text" x="43.5" y="4">GET</text><text class="endpoint-label" x="77" y="5">/orders</text></g><g class="station" tabindex="-1" role="button" aria-label="POST /orders, 3 inputs and 1 responses" data-endpoint-id="ep-3bb9ca64325a895f" data-method="POST" data-path="/orders" data-dependencies="dep-19553b4c5896dee5,dep-38b12984ca61ba14,dep-530c819560d41f73,dep-77a1adba6fb5c92b,dep-79f71da190a68b05,dep-8224cb7ecac317c0,dep-b648ce9ab50da022,dep-b8d9e403b65eea98,dep-f23d2cb5bc18e260,dep-f464ac88d2f4fc49" data-input-count="3" data-response-count="1" transform="translate(930.0 400.0)"><title>POST /orders — express</title><circle class="interchange-ring" r="12"/><circle class="station-dot" r="6"/><rect class="method-badge method-post" x="20" y="-13" width="54" height="26" rx="6"/><text class="method-text" x="47" y="4">POST</text><text class="endpoint-label" x="84" y="5">/orders</text></g><g class="station" tabindex="-1" role="button" aria-label="PUT /orders/{id}, 4 inputs and 1 responses" data-endpoint-id="ep-37402d6d850a79b0" data-method="PUT" data-path="/orders/{id}" data-dependencies="dep-19553b4c5896dee5,dep-530c819560d41f73,dep-77a1adba6fb5c92b,dep-8224cb7ecac317c0,dep-b648ce9ab50da022,dep-b8d9e403b65eea98" data-input-count="4" data-response-count="1" transform="translate(930.0 444.0)"><title>PUT /orders/{id} — express</title><circle class="interchange-ring" r="12"/><circle class="station-dot" r="6"/><rect class="method-badge method-put" x="20" y="-13" width="47" height="26" rx="6"/><text class="method-text" x="43.5" y="4">PUT</text><text class="endpoint-label" x="77" y="5">/orders/{id}</text></g><g class="station" tabindex="-1" role="button" aria-label="GET /users, 0 inputs and 1 responses" data-endpoint-id="ep-46fb94d342fd4796" data-method="GET" data-path="/users" data-dependencies="dep-30077558c4dc9970,dep-77a1adba6fb5c92b,dep-8224cb7ecac317c0,dep-8472a1c3efe535ca,dep-b8d9e403b65eea98,dep-ff25b093dde3a184" data-input-count="0" data-response-count="1" transform="translate(430.0 550.0)"><title>GET /users — express</title><circle class="interchange-ring" r="12"/><circle class="station-dot" r="6"/><rect class="method-badge method-get" x="-350" y="-13" width="47" height="26" rx="6"/><text class="method-text" x="-326.5" y="4">GET</text><text class="endpoint-label" x="-293" y="5">/users</text></g><g class="station" tabindex="-1" role="button" aria-label="POST /users, 3 inputs and 1 responses" data-endpoint-id="ep-2a414d856e514926" data-method="POST" data-path="/users" data-dependencies="dep-30077558c4dc9970,dep-38b12984ca61ba14,dep-77a1adba6fb5c92b,dep-8224cb7ecac317c0,dep-8472a1c3efe535ca,dep-b8d9e403b65eea98,dep-f23d2cb5bc18e260,dep-ff25b093dde3a184" data-input-count="3" data-response-count="1" transform="translate(430.0 594.0)"><title>POST /users — express</title><circle class="interchange-ring" r="12"/><circle class="station-dot" r="6"/><rect class="method-badge method-post" x="-350" y="-13" width="54" height="26" rx="6"/><text class="method-text" x="-323" y="4">POST</text><text class="endpoint-label" x="-286" y="5">/users</text></g><g class="station" tabindex="-1" role="button" aria-label="GET /users/{id}, 1 inputs and 2 responses" data-endpoint-id="ep-e2f8570ab53114e0" data-method="GET" data-path="/users/{id}" data-dependencies="dep-30077558c4dc9970,dep-77a1adba6fb5c92b,dep-8038363bd22fadb6,dep-8224cb7ecac317c0,dep-8472a1c3efe535ca,dep-b8d9e403b65eea98,dep-f3acd7a497d57ff6,dep-ff25b093dde3a184" data-input-count="1" data-response-count="2" transform="translate(430.0 638.0)"><title>GET /users/{id} — express</title><circle class="interchange-ring" r="12"/><circle class="station-dot" r="6"/><rect class="method-badge method-get" x="-350" y="-13" width="47" height="26" rx="6"/><text class="method-text" x="-326.5" y="4">GET</text><text class="endpoint-label" x="-293" y="5">/users/{id}</text></g></g><g class="legend"><g class="legend-item" data-dependency-id="dep-8224cb7ecac317c0" data-kind="middleware"><path style="--line-color:#2bd9fe" d="M 72.0 728.0 L 100.0 728.0"/><circle style="--line-color:#2bd9fe" cx="86.0" cy="728.0" r="4"/><text x="112.0" y="732.0">audit</text><text class="legend-kind" x="112.0" y="746.0">middleware</text></g><g class="legend-item" data-dependency-id="dep-77a1adba6fb5c92b" data-kind="middleware"><path style="--line-color:#ff6f61" d="M 376.0 728.0 L 404.0 728.0"/><circle style="--line-color:#ff6f61" cx="390.0" cy="728.0" r="4"/><text x="416.0" y="732.0">json</text><text class="legend-kind" x="416.0" y="746.0">middleware</text></g><g class="legend-item" data-dependency-id="dep-b8d9e403b65eea98" data-kind="middleware"><path style="--line-color:#f7bd4a" d="M 680.0 728.0 L 708.0 728.0"/><circle style="--line-color:#f7bd4a" cx="694.0" cy="728.0" r="4"/><text x="720.0" y="732.0">authorize</text><text class="legend-kind" x="720.0" y="746.0">middleware</text></g><g class="legend-item" data-dependency-id="dep-19553b4c5896dee5" data-kind="datastore"><path style="--line-color:#a88bff" d="M 984.0 728.0 L 1012.0 728.0"/><circle style="--line-color:#a88bff" cx="998.0" cy="728.0" r="4"/><text x="1024.0" y="732.0">Orders</text><text class="legend-kind" x="1024.0" y="746.0">datastore</text></g><g class="legend-item" data-dependency-id="dep-b648ce9ab50da022" data-kind="datastore"><path style="--line-color:#5ce1b6" d="M 72.0 768.0 L 100.0 768.0"/><circle style="--line-color:#5ce1b6" cx="86.0" cy="768.0" r="4"/><text x="112.0" y="772.0">Postgres client</text><text class="legend-kind" x="112.0" y="786.0">datastore</text></g><g class="legend-item" data-dependency-id="dep-30077558c4dc9970" data-kind="datastore"><path style="--line-color:#ff8ccd" d="M 376.0 768.0 L 404.0 768.0"/><circle style="--line-color:#ff8ccd" cx="390.0" cy="768.0" r="4"/><text x="416.0" y="772.0">Prisma</text><text class="legend-kind" x="416.0" y="786.0">datastore</text></g><g class="legend-item" data-dependency-id="dep-ff25b093dde3a184" data-kind="datastore"><path style="--line-color:#72a7ff" d="M 680.0 768.0 L 708.0 768.0"/><circle style="--line-color:#72a7ff" cx="694.0" cy="768.0" r="4"/><text x="720.0" y="772.0">Users</text><text class="legend-kind" x="720.0" y="786.0">datastore</text></g><g class="legend-item" data-dependency-id="dep-79f71da190a68b05" data-kind="service"><path style="--line-color:#f58d44" d="M 984.0 768.0 L 1012.0 768.0"/><circle style="--line-color:#f58d44" cx="998.0" cy="768.0" r="4"/><text x="1024.0" y="772.0">Billing</text><text class="legend-kind" x="1024.0" y="786.0">service</text></g><g class="legend-item" data-dependency-id="dep-530c819560d41f73" data-kind="service"><path style="--line-color:#7bdc65" d="M 72.0 808.0 L 100.0 808.0"/><circle style="--line-color:#7bdc65" cx="86.0" cy="808.0" r="4"/><text x="112.0" y="812.0">Orders</text><text class="legend-kind" x="112.0" y="826.0">service</text></g><g class="legend-item" data-dependency-id="dep-8472a1c3efe535ca" data-kind="service"><path style="--line-color:#dd79ff" d="M 376.0 808.0 L 404.0 808.0"/><circle style="--line-color:#dd79ff" cx="390.0" cy="808.0" r="4"/><text x="416.0" y="812.0">Users</text><text class="legend-kind" x="416.0" y="826.0">service</text></g><g class="legend-item" data-dependency-id="dep-f464ac88d2f4fc49" data-kind="external"><path style="--line-color:#38c7ae" d="M 680.0 808.0 L 708.0 808.0"/><circle style="--line-color:#38c7ae" cx="694.0" cy="808.0" r="4"/><text x="720.0" y="812.0">Stripe</text><text class="legend-kind" x="720.0" y="826.0">external</text></g><g class="legend-item" data-dependency-id="dep-38b12984ca61ba14" data-kind="external"><path style="--line-color:#e5d352" d="M 984.0 808.0 L 1012.0 808.0"/><circle style="--line-color:#e5d352" cx="998.0" cy="808.0" r="4"/><text x="1024.0" y="812.0">Notifications</text><text class="legend-kind" x="1024.0" y="826.0">external</text></g><text class="hidden-lines" x="72.0" y="896.0">+1 less-connected lines available in HTML</text></g></g></svg>
